<mxfile host="app.diagrams.net" agent="Mozilla/5.0 (Windows NT 10.0; Win64; x64; rv:133.0) Gecko/20100101 Firefox/133.0" version="25.0.1">
  <diagram name="Página-1" id="Rnzj2eeD5r2sBo3bMtvs">
    <mxGraphModel dx="1120" dy="1631" grid="1" gridSize="10" guides="1" tooltips="1" connect="1" arrows="1" fold="1" page="1" pageScale="1" pageWidth="827" pageHeight="1169" math="0" shadow="0">
      <root>
        <mxCell id="0" />
        <mxCell id="1" parent="0" />
        <mxCell id="fDUtnPwelxCrCshrMRrS-1" value="Usuario" style="swimlane;fontStyle=0;childLayout=stackLayout;horizontal=1;startSize=26;fillColor=none;horizontalStack=0;resizeParent=1;resizeParentMax=0;resizeLast=0;collapsible=1;marginBottom=0;whiteSpace=wrap;html=1;" parent="1" vertex="1">
          <mxGeometry x="13" y="190" width="140" height="78" as="geometry" />
        </mxCell>
        <mxCell id="fDUtnPwelxCrCshrMRrS-2" value="DNI: &#39;12345678B&#39;" style="text;strokeColor=none;fillColor=none;align=left;verticalAlign=top;spacingLeft=4;spacingRight=4;overflow=hidden;rotatable=0;points=[[0,0.5],[1,0.5]];portConstraint=eastwest;whiteSpace=wrap;html=1;" parent="fDUtnPwelxCrCshrMRrS-1" vertex="1">
          <mxGeometry y="26" width="140" height="26" as="geometry" />
        </mxCell>
        <mxCell id="fDUtnPwelxCrCshrMRrS-3" value="contraseña:&#39;5a6b7c8d&#39;" style="text;strokeColor=none;fillColor=none;align=left;verticalAlign=top;spacingLeft=4;spacingRight=4;overflow=hidden;rotatable=0;points=[[0,0.5],[1,0.5]];portConstraint=eastwest;whiteSpace=wrap;html=1;" parent="fDUtnPwelxCrCshrMRrS-1" vertex="1">
          <mxGeometry y="52" width="140" height="26" as="geometry" />
        </mxCell>
        <mxCell id="fDUtnPwelxCrCshrMRrS-5" value="Cliente" style="swimlane;fontStyle=0;childLayout=stackLayout;horizontal=1;startSize=26;fillColor=none;horizontalStack=0;resizeParent=1;resizeParentMax=0;resizeLast=0;collapsible=1;marginBottom=0;whiteSpace=wrap;html=1;" parent="1" vertex="1">
          <mxGeometry x="258" y="67" width="140" height="190" as="geometry" />
        </mxCell>
        <mxCell id="fDUtnPwelxCrCshrMRrS-6" value="nombre" style="text;strokeColor=none;fillColor=none;align=left;verticalAlign=top;spacingLeft=4;spacingRight=4;overflow=hidden;rotatable=0;points=[[0,0.5],[1,0.5]];portConstraint=eastwest;whiteSpace=wrap;html=1;" parent="fDUtnPwelxCrCshrMRrS-5" vertex="1">
          <mxGeometry y="26" width="140" height="26" as="geometry" />
        </mxCell>
        <mxCell id="fDUtnPwelxCrCshrMRrS-7" value="apellidos" style="text;strokeColor=none;fillColor=none;align=left;verticalAlign=top;spacingLeft=4;spacingRight=4;overflow=hidden;rotatable=0;points=[[0,0.5],[1,0.5]];portConstraint=eastwest;whiteSpace=wrap;html=1;" parent="fDUtnPwelxCrCshrMRrS-5" vertex="1">
          <mxGeometry y="52" width="140" height="26" as="geometry" />
        </mxCell>
        <mxCell id="fDUtnPwelxCrCshrMRrS-8" value="dni" style="text;strokeColor=none;fillColor=none;align=left;verticalAlign=top;spacingLeft=4;spacingRight=4;overflow=hidden;rotatable=0;points=[[0,0.5],[1,0.5]];portConstraint=eastwest;whiteSpace=wrap;html=1;" parent="fDUtnPwelxCrCshrMRrS-5" vertex="1">
          <mxGeometry y="78" width="140" height="26" as="geometry" />
        </mxCell>
        <mxCell id="fDUtnPwelxCrCshrMRrS-18" value="teléfono" style="text;strokeColor=none;fillColor=none;align=left;verticalAlign=top;spacingLeft=4;spacingRight=4;overflow=hidden;rotatable=0;points=[[0,0.5],[1,0.5]];portConstraint=eastwest;whiteSpace=wrap;html=1;" parent="fDUtnPwelxCrCshrMRrS-5" vertex="1">
          <mxGeometry y="104" width="140" height="26" as="geometry" />
        </mxCell>
        <mxCell id="fDUtnPwelxCrCshrMRrS-19" value="reservasAcumuladas=0" style="text;strokeColor=none;fillColor=none;align=left;verticalAlign=top;spacingLeft=4;spacingRight=4;overflow=hidden;rotatable=0;points=[[0,0.5],[1,0.5]];portConstraint=eastwest;whiteSpace=wrap;html=1;" parent="fDUtnPwelxCrCshrMRrS-5" vertex="1">
          <mxGeometry y="130" width="140" height="26" as="geometry" />
        </mxCell>
        <mxCell id="fDUtnPwelxCrCshrMRrS-20" value="preferencias" style="text;strokeColor=none;fillColor=none;align=left;verticalAlign=top;spacingLeft=4;spacingRight=4;overflow=hidden;rotatable=0;points=[[0,0.5],[1,0.5]];portConstraint=eastwest;whiteSpace=wrap;html=1;" parent="fDUtnPwelxCrCshrMRrS-5" vertex="1">
          <mxGeometry y="156" width="140" height="34" as="geometry" />
        </mxCell>
        <mxCell id="fDUtnPwelxCrCshrMRrS-37" value="" style="endArrow=block;endFill=0;endSize=12;html=1;rounded=0;exitX=0;exitY=0;exitDx=0;exitDy=0;" parent="fDUtnPwelxCrCshrMRrS-5" source="fDUtnPwelxCrCshrMRrS-14" edge="1">
          <mxGeometry width="160" relative="1" as="geometry">
            <mxPoint x="52" y="168.5" as="sourcePoint" />
            <mxPoint x="-108" y="168.5" as="targetPoint" />
          </mxGeometry>
        </mxCell>
        <mxCell id="fDUtnPwelxCrCshrMRrS-14" value="Empleado" style="swimlane;fontStyle=0;childLayout=stackLayout;horizontal=1;startSize=26;fillColor=none;horizontalStack=0;resizeParent=1;resizeParentMax=0;resizeLast=0;collapsible=1;marginBottom=0;whiteSpace=wrap;html=1;" parent="1" vertex="1">
          <mxGeometry x="261" y="270" width="149" height="52" as="geometry" />
        </mxCell>
        <mxCell id="fDUtnPwelxCrCshrMRrS-15" value="contrato: Vigente" style="text;strokeColor=none;fillColor=none;align=left;verticalAlign=top;spacingLeft=4;spacingRight=4;overflow=hidden;rotatable=0;points=[[0,0.5],[1,0.5]];portConstraint=eastwest;whiteSpace=wrap;html=1;" parent="fDUtnPwelxCrCshrMRrS-14" vertex="1">
          <mxGeometry y="26" width="149" height="26" as="geometry" />
        </mxCell>
        <mxCell id="fDUtnPwelxCrCshrMRrS-36" value="" style="endArrow=block;endFill=0;endSize=12;html=1;rounded=0;entryX=0.75;entryY=0;entryDx=0;entryDy=0;" parent="1" target="fDUtnPwelxCrCshrMRrS-1" edge="1">
          <mxGeometry width="160" relative="1" as="geometry">
            <mxPoint x="258" y="120" as="sourcePoint" />
            <mxPoint x="98" y="120" as="targetPoint" />
            <Array as="points">
              <mxPoint x="118" y="120" />
            </Array>
          </mxGeometry>
        </mxCell>
        <mxCell id="fDUtnPwelxCrCshrMRrS-40" value="{incompleta, disjunta}" style="text;html=1;align=center;verticalAlign=middle;whiteSpace=wrap;rounded=0;" parent="1" vertex="1">
          <mxGeometry x="53" y="143" width="60" height="30" as="geometry" />
        </mxCell>
        <mxCell id="M9siHUHZYdLlpbm4mkQO-1" value="Reserva" style="swimlane;fontStyle=0;childLayout=stackLayout;horizontal=1;startSize=26;fillColor=none;horizontalStack=0;resizeParent=1;resizeParentMax=0;resizeLast=0;collapsible=1;marginBottom=0;whiteSpace=wrap;html=1;" parent="1" vertex="1">
          <mxGeometry x="623" y="138" width="140" height="156" as="geometry" />
        </mxCell>
        <mxCell id="M9siHUHZYdLlpbm4mkQO-3" value="Pepe García Torre" style="text;strokeColor=none;fillColor=none;align=left;verticalAlign=top;spacingLeft=4;spacingRight=4;overflow=hidden;rotatable=0;points=[[0,0.5],[1,0.5]];portConstraint=eastwest;whiteSpace=wrap;html=1;" parent="M9siHUHZYdLlpbm4mkQO-1" vertex="1">
          <mxGeometry y="26" width="140" height="26" as="geometry" />
        </mxCell>
        <mxCell id="M9siHUHZYdLlpbm4mkQO-4" value="&lt;div&gt;fecha Check-In: &#39;20-12-2024&#39;&lt;/div&gt;" style="text;strokeColor=none;fillColor=none;align=left;verticalAlign=top;spacingLeft=4;spacingRight=4;overflow=hidden;rotatable=0;points=[[0,0.5],[1,0.5]];portConstraint=eastwest;whiteSpace=wrap;html=1;" parent="M9siHUHZYdLlpbm4mkQO-1" vertex="1">
          <mxGeometry y="52" width="140" height="38" as="geometry" />
        </mxCell>
        <mxCell id="M9siHUHZYdLlpbm4mkQO-24" value="fecha Check-out: &#39;26-12-2024&#39;" style="text;strokeColor=none;fillColor=none;align=left;verticalAlign=top;spacingLeft=4;spacingRight=4;overflow=hidden;rotatable=0;points=[[0,0.5],[1,0.5]];portConstraint=eastwest;whiteSpace=wrap;html=1;" parent="M9siHUHZYdLlpbm4mkQO-1" vertex="1">
          <mxGeometry y="90" width="140" height="40" as="geometry" />
        </mxCell>
        <mxCell id="M9siHUHZYdLlpbm4mkQO-26" value="importe: 560" style="text;strokeColor=none;fillColor=none;align=left;verticalAlign=top;spacingLeft=4;spacingRight=4;overflow=hidden;rotatable=0;points=[[0,0.5],[1,0.5]];portConstraint=eastwest;whiteSpace=wrap;html=1;" parent="M9siHUHZYdLlpbm4mkQO-1" vertex="1">
          <mxGeometry y="130" width="140" height="26" as="geometry" />
        </mxCell>
        <mxCell id="M9siHUHZYdLlpbm4mkQO-9" value="Habitación" style="swimlane;fontStyle=0;childLayout=stackLayout;horizontal=1;startSize=26;fillColor=none;horizontalStack=0;resizeParent=1;resizeParentMax=0;resizeLast=0;collapsible=1;marginBottom=0;whiteSpace=wrap;html=1;" parent="1" vertex="1">
          <mxGeometry x="614" y="450" width="140" height="130" as="geometry" />
        </mxCell>
        <mxCell id="M9siHUHZYdLlpbm4mkQO-10" value="numero: 113" style="text;strokeColor=none;fillColor=none;align=left;verticalAlign=top;spacingLeft=4;spacingRight=4;overflow=hidden;rotatable=0;points=[[0,0.5],[1,0.5]];portConstraint=eastwest;whiteSpace=wrap;html=1;" parent="M9siHUHZYdLlpbm4mkQO-9" vertex="1">
          <mxGeometry y="26" width="140" height="26" as="geometry" />
        </mxCell>
        <mxCell id="M9siHUHZYdLlpbm4mkQO-11" value="capacidad: 4" style="text;strokeColor=none;fillColor=none;align=left;verticalAlign=top;spacingLeft=4;spacingRight=4;overflow=hidden;rotatable=0;points=[[0,0.5],[1,0.5]];portConstraint=eastwest;whiteSpace=wrap;html=1;" parent="M9siHUHZYdLlpbm4mkQO-9" vertex="1">
          <mxGeometry y="52" width="140" height="26" as="geometry" />
        </mxCell>
        <mxCell id="M9siHUHZYdLlpbm4mkQO-55" value="precioNoche: 112" style="text;strokeColor=none;fillColor=none;align=left;verticalAlign=top;spacingLeft=4;spacingRight=4;overflow=hidden;rotatable=0;points=[[0,0.5],[1,0.5]];portConstraint=eastwest;whiteSpace=wrap;html=1;" parent="M9siHUHZYdLlpbm4mkQO-9" vertex="1">
          <mxGeometry y="78" width="140" height="26" as="geometry" />
        </mxCell>
        <mxCell id="M9siHUHZYdLlpbm4mkQO-100" value="disponibilidad: true" style="text;strokeColor=none;fillColor=none;align=left;verticalAlign=top;spacingLeft=4;spacingRight=4;overflow=hidden;rotatable=0;points=[[0,0.5],[1,0.5]];portConstraint=eastwest;whiteSpace=wrap;html=1;" parent="M9siHUHZYdLlpbm4mkQO-9" vertex="1">
          <mxGeometry y="104" width="140" height="26" as="geometry" />
        </mxCell>
        <mxCell id="M9siHUHZYdLlpbm4mkQO-27" value="" style="endArrow=none;html=1;rounded=0;exitX=1;exitY=0.5;exitDx=0;exitDy=0;entryX=0;entryY=0.128;entryDx=0;entryDy=0;entryPerimeter=0;" parent="1" source="fDUtnPwelxCrCshrMRrS-5" target="M9siHUHZYdLlpbm4mkQO-1" edge="1">
          <mxGeometry relative="1" as="geometry">
            <mxPoint x="480" y="212" as="sourcePoint" />
            <mxPoint x="630" y="160" as="targetPoint" />
            <Array as="points" />
          </mxGeometry>
        </mxCell>
        <mxCell id="M9siHUHZYdLlpbm4mkQO-28" value="realiza" style="text;html=1;align=center;verticalAlign=middle;whiteSpace=wrap;rounded=0;" parent="1" vertex="1">
          <mxGeometry x="480" y="120" width="60" height="30" as="geometry" />
        </mxCell>
        <mxCell id="M9siHUHZYdLlpbm4mkQO-29" value="" style="endArrow=none;html=1;rounded=0;entryX=0.207;entryY=-0.019;entryDx=0;entryDy=0;entryPerimeter=0;exitX=0.136;exitY=1;exitDx=0;exitDy=0;exitPerimeter=0;" parent="1" source="M9siHUHZYdLlpbm4mkQO-26" target="M9siHUHZYdLlpbm4mkQO-9" edge="1">
          <mxGeometry relative="1" as="geometry">
            <mxPoint x="718" y="310" as="sourcePoint" />
            <mxPoint x="719.5" y="337" as="targetPoint" />
            <Array as="points" />
          </mxGeometry>
        </mxCell>
        <mxCell id="M9siHUHZYdLlpbm4mkQO-30" value="contiene" style="text;html=1;align=center;verticalAlign=middle;whiteSpace=wrap;rounded=0;" parent="1" vertex="1">
          <mxGeometry x="580" y="322" width="60" height="30" as="geometry" />
        </mxCell>
        <mxCell id="M9siHUHZYdLlpbm4mkQO-49" value="&lt;div&gt;&amp;lt;&amp;lt;Enum&amp;gt;&amp;gt;&lt;/div&gt;&lt;div&gt;EstadoContrato&lt;br&gt;&lt;/div&gt;" style="swimlane;fontStyle=0;childLayout=stackLayout;horizontal=1;startSize=26;fillColor=none;horizontalStack=0;resizeParent=1;resizeParentMax=0;resizeLast=0;collapsible=1;marginBottom=0;whiteSpace=wrap;html=1;" parent="1" vertex="1">
          <mxGeometry x="430" y="10" width="140" height="78" as="geometry" />
        </mxCell>
        <mxCell id="M9siHUHZYdLlpbm4mkQO-50" value="Vigente" style="text;strokeColor=none;fillColor=none;align=left;verticalAlign=top;spacingLeft=4;spacingRight=4;overflow=hidden;rotatable=0;points=[[0,0.5],[1,0.5]];portConstraint=eastwest;whiteSpace=wrap;html=1;" parent="M9siHUHZYdLlpbm4mkQO-49" vertex="1">
          <mxGeometry y="26" width="140" height="26" as="geometry" />
        </mxCell>
        <mxCell id="M9siHUHZYdLlpbm4mkQO-51" value="Finalizado" style="text;strokeColor=none;fillColor=none;align=left;verticalAlign=top;spacingLeft=4;spacingRight=4;overflow=hidden;rotatable=0;points=[[0,0.5],[1,0.5]];portConstraint=eastwest;whiteSpace=wrap;html=1;" parent="M9siHUHZYdLlpbm4mkQO-49" vertex="1">
          <mxGeometry y="52" width="140" height="26" as="geometry" />
        </mxCell>
        <mxCell id="M9siHUHZYdLlpbm4mkQO-52" value="" style="endArrow=none;html=1;rounded=0;exitX=1;exitY=0.5;exitDx=0;exitDy=0;entryX=0;entryY=0.5;entryDx=0;entryDy=0;" parent="1" source="fDUtnPwelxCrCshrMRrS-14" target="M9siHUHZYdLlpbm4mkQO-24" edge="1">
          <mxGeometry relative="1" as="geometry">
            <mxPoint x="420" y="270" as="sourcePoint" />
            <mxPoint x="672" y="270" as="targetPoint" />
            <Array as="points" />
          </mxGeometry>
        </mxCell>
        <mxCell id="M9siHUHZYdLlpbm4mkQO-53" value="supervisa" style="text;html=1;align=center;verticalAlign=middle;whiteSpace=wrap;rounded=0;" parent="1" vertex="1">
          <mxGeometry x="490" y="229" width="60" height="30" as="geometry" />
        </mxCell>
        <mxCell id="M9siHUHZYdLlpbm4mkQO-67" value="" style="endArrow=none;html=1;rounded=0;exitX=1;exitY=0.5;exitDx=0;exitDy=0;entryX=0;entryY=0.067;entryDx=0;entryDy=0;entryPerimeter=0;" parent="1" source="fDUtnPwelxCrCshrMRrS-15" target="M9siHUHZYdLlpbm4mkQO-9" edge="1">
          <mxGeometry relative="1" as="geometry">
            <mxPoint x="420" y="286" as="sourcePoint" />
            <mxPoint x="479" y="340" as="targetPoint" />
            <Array as="points" />
          </mxGeometry>
        </mxCell>
        <mxCell id="M9siHUHZYdLlpbm4mkQO-68" value="acondiciona" style="text;html=1;align=center;verticalAlign=middle;whiteSpace=wrap;rounded=0;" parent="1" vertex="1">
          <mxGeometry x="450" y="370" width="60" height="30" as="geometry" />
        </mxCell>
        <mxCell id="M9siHUHZYdLlpbm4mkQO-69" value="1" style="text;html=1;align=center;verticalAlign=middle;whiteSpace=wrap;rounded=0;" parent="1" vertex="1">
          <mxGeometry x="380" y="130" width="60" height="30" as="geometry" />
        </mxCell>
        <mxCell id="M9siHUHZYdLlpbm4mkQO-70" value="*" style="text;html=1;align=center;verticalAlign=middle;whiteSpace=wrap;rounded=0;" parent="1" vertex="1">
          <mxGeometry x="578" y="130" width="60" height="30" as="geometry" />
        </mxCell>
        <mxCell id="M9siHUHZYdLlpbm4mkQO-71" value="*" style="text;html=1;align=center;verticalAlign=middle;whiteSpace=wrap;rounded=0;" parent="1" vertex="1">
          <mxGeometry x="575" y="206" width="60" height="30" as="geometry" />
        </mxCell>
        <mxCell id="M9siHUHZYdLlpbm4mkQO-72" value="*" style="text;html=1;align=center;verticalAlign=middle;whiteSpace=wrap;rounded=0;" parent="1" vertex="1">
          <mxGeometry x="392" y="266" width="60" height="30" as="geometry" />
        </mxCell>
        <mxCell id="M9siHUHZYdLlpbm4mkQO-73" value="*" style="text;html=1;align=center;verticalAlign=middle;whiteSpace=wrap;rounded=0;" parent="1" vertex="1">
          <mxGeometry x="580" y="420" width="60" height="30" as="geometry" />
        </mxCell>
        <mxCell id="M9siHUHZYdLlpbm4mkQO-74" value="*" style="text;html=1;align=center;verticalAlign=middle;whiteSpace=wrap;rounded=0;" parent="1" vertex="1">
          <mxGeometry x="398" y="296" width="60" height="30" as="geometry" />
        </mxCell>
        <mxCell id="M9siHUHZYdLlpbm4mkQO-75" value="*" style="text;html=1;align=center;verticalAlign=middle;whiteSpace=wrap;rounded=0;" parent="1" vertex="1">
          <mxGeometry x="623" y="420" width="60" height="30" as="geometry" />
        </mxCell>
        <mxCell id="M9siHUHZYdLlpbm4mkQO-76" value="*" style="text;html=1;align=center;verticalAlign=middle;whiteSpace=wrap;rounded=0;" parent="1" vertex="1">
          <mxGeometry x="623" y="296" width="60" height="30" as="geometry" />
        </mxCell>
        <mxCell id="M9siHUHZYdLlpbm4mkQO-101" value="ReservaHabitacion" style="swimlane;fontStyle=0;childLayout=stackLayout;horizontal=1;startSize=26;fillColor=none;horizontalStack=0;resizeParent=1;resizeParentMax=0;resizeLast=0;collapsible=1;marginBottom=0;whiteSpace=wrap;html=1;" parent="1" vertex="1">
          <mxGeometry x="810" y="300" width="140" height="138" as="geometry" />
        </mxCell>
        <mxCell id="M9siHUHZYdLlpbm4mkQO-102" value="&lt;div&gt;FechaComprobacion:&lt;/div&gt;&lt;div&gt;&#39;19-12-2024&#39;&lt;br&gt;&lt;/div&gt;" style="text;strokeColor=none;fillColor=none;align=left;verticalAlign=top;spacingLeft=4;spacingRight=4;overflow=hidden;rotatable=0;points=[[0,0.5],[1,0.5]];portConstraint=eastwest;whiteSpace=wrap;html=1;" parent="M9siHUHZYdLlpbm4mkQO-101" vertex="1">
          <mxGeometry y="26" width="140" height="34" as="geometry" />
        </mxCell>
        <mxCell id="M9siHUHZYdLlpbm4mkQO-103" value="toallas:4" style="text;strokeColor=none;fillColor=none;align=left;verticalAlign=top;spacingLeft=4;spacingRight=4;overflow=hidden;rotatable=0;points=[[0,0.5],[1,0.5]];portConstraint=eastwest;whiteSpace=wrap;html=1;" parent="M9siHUHZYdLlpbm4mkQO-101" vertex="1">
          <mxGeometry y="60" width="140" height="26" as="geometry" />
        </mxCell>
        <mxCell id="M9siHUHZYdLlpbm4mkQO-104" value="gel:2" style="text;strokeColor=none;fillColor=none;align=left;verticalAlign=top;spacingLeft=4;spacingRight=4;overflow=hidden;rotatable=0;points=[[0,0.5],[1,0.5]];portConstraint=eastwest;whiteSpace=wrap;html=1;" parent="M9siHUHZYdLlpbm4mkQO-101" vertex="1">
          <mxGeometry y="86" width="140" height="26" as="geometry" />
        </mxCell>
        <mxCell id="M9siHUHZYdLlpbm4mkQO-105" value="sábanas:2" style="text;strokeColor=none;fillColor=none;align=left;verticalAlign=top;spacingLeft=4;spacingRight=4;overflow=hidden;rotatable=0;points=[[0,0.5],[1,0.5]];portConstraint=eastwest;whiteSpace=wrap;html=1;" parent="M9siHUHZYdLlpbm4mkQO-101" vertex="1">
          <mxGeometry y="112" width="140" height="26" as="geometry" />
        </mxCell>
        <mxCell id="g0F_PUkSHQh2jRMdZ2MX-1" value="" style="html=1;verticalAlign=bottom;labelBackgroundColor=none;endArrow=none;endFill=0;dashed=1;rounded=0;exitX=1;exitY=1;exitDx=0;exitDy=0;" edge="1" parent="1" source="M9siHUHZYdLlpbm4mkQO-30">
          <mxGeometry width="160" relative="1" as="geometry">
            <mxPoint x="650" y="352" as="sourcePoint" />
            <mxPoint x="810" y="352" as="targetPoint" />
          </mxGeometry>
        </mxCell>
        <mxCell id="g0F_PUkSHQh2jRMdZ2MX-7" value="" style="group" vertex="1" connectable="0" parent="1">
          <mxGeometry x="60" y="320" width="139" height="64" as="geometry" />
        </mxCell>
        <mxCell id="g0F_PUkSHQh2jRMdZ2MX-4" value="" style="shape=note2;boundedLbl=1;whiteSpace=wrap;html=1;size=25;verticalAlign=top;align=center;" vertex="1" parent="g0F_PUkSHQh2jRMdZ2MX-7">
          <mxGeometry x="9" width="130" height="64" as="geometry" />
        </mxCell>
        <mxCell id="g0F_PUkSHQh2jRMdZ2MX-6" value="&lt;div&gt;R.N.01&lt;/div&gt;&lt;div&gt;&amp;nbsp;No puede haber 2 usuarios con el mismo DNI&lt;/div&gt;" style="text;html=1;align=center;verticalAlign=middle;whiteSpace=wrap;rounded=0;" vertex="1" parent="g0F_PUkSHQh2jRMdZ2MX-7">
          <mxGeometry y="4" width="120" height="50" as="geometry" />
        </mxCell>
        <mxCell id="g0F_PUkSHQh2jRMdZ2MX-8" value="" style="group" vertex="1" connectable="0" parent="1">
          <mxGeometry x="4" y="407" width="149" height="74" as="geometry" />
        </mxCell>
        <mxCell id="g0F_PUkSHQh2jRMdZ2MX-9" value="" style="shape=note2;boundedLbl=1;whiteSpace=wrap;html=1;size=25;verticalAlign=top;align=center;" vertex="1" parent="g0F_PUkSHQh2jRMdZ2MX-8">
          <mxGeometry x="9.647482014388489" width="139.3525179856115" height="74" as="geometry" />
        </mxCell>
        <mxCell id="g0F_PUkSHQh2jRMdZ2MX-10" value="&lt;div&gt;R.N.02&lt;/div&gt;&lt;div&gt;&amp;nbsp;No puede crearse un usuario sin rellenar todos los campos&lt;br&gt;&lt;/div&gt;" style="text;html=1;align=center;verticalAlign=middle;whiteSpace=wrap;rounded=0;" vertex="1" parent="g0F_PUkSHQh2jRMdZ2MX-8">
          <mxGeometry x="4" y="10.625" width="128.63309352517985" height="57.8125" as="geometry" />
        </mxCell>
        <mxCell id="g0F_PUkSHQh2jRMdZ2MX-15" value="" style="group" vertex="1" connectable="0" parent="1">
          <mxGeometry x="600" y="30" width="139" height="69" as="geometry" />
        </mxCell>
        <mxCell id="g0F_PUkSHQh2jRMdZ2MX-16" value="" style="shape=note2;boundedLbl=1;whiteSpace=wrap;html=1;size=25;verticalAlign=top;align=center;" vertex="1" parent="g0F_PUkSHQh2jRMdZ2MX-15">
          <mxGeometry x="9" width="130" height="69" as="geometry" />
        </mxCell>
        <mxCell id="g0F_PUkSHQh2jRMdZ2MX-17" value="&lt;div&gt;R.N.03&lt;/div&gt;&lt;div&gt;&amp;nbsp;No puede realizarse una reserva sin la información del cliente&lt;br&gt;&lt;/div&gt;" style="text;html=1;align=center;verticalAlign=middle;whiteSpace=wrap;rounded=0;" vertex="1" parent="g0F_PUkSHQh2jRMdZ2MX-15">
          <mxGeometry x="8" y="8.625" width="120" height="53.90625" as="geometry" />
        </mxCell>
        <mxCell id="g0F_PUkSHQh2jRMdZ2MX-24" value="" style="group" vertex="1" connectable="0" parent="1">
          <mxGeometry x="750" y="24.5" width="170" height="80" as="geometry" />
        </mxCell>
        <mxCell id="g0F_PUkSHQh2jRMdZ2MX-25" value="" style="shape=note2;boundedLbl=1;whiteSpace=wrap;html=1;size=25;verticalAlign=top;align=center;" vertex="1" parent="g0F_PUkSHQh2jRMdZ2MX-24">
          <mxGeometry x="8.738" width="161.262" height="80" as="geometry" />
        </mxCell>
        <mxCell id="g0F_PUkSHQh2jRMdZ2MX-26" value="&lt;div&gt;R.N.04&lt;/div&gt;&lt;div&gt;&amp;nbsp;No puede realizarse una reserva con una fecha de&amp;nbsp; check-out anterior a la fecha del check-in &lt;br&gt;&lt;/div&gt;" style="text;html=1;align=center;verticalAlign=middle;whiteSpace=wrap;rounded=0;" vertex="1" parent="g0F_PUkSHQh2jRMdZ2MX-24">
          <mxGeometry x="7.763333333333333" y="16" width="162.23666666666668" height="58.57142857142857" as="geometry" />
        </mxCell>
        <mxCell id="g0F_PUkSHQh2jRMdZ2MX-28" value="" style="group" vertex="1" connectable="0" parent="1">
          <mxGeometry x="930" y="80" width="149" height="84" as="geometry" />
        </mxCell>
        <mxCell id="g0F_PUkSHQh2jRMdZ2MX-29" value="" style="shape=note2;boundedLbl=1;whiteSpace=wrap;html=1;size=25;verticalAlign=top;align=center;" vertex="1" parent="g0F_PUkSHQh2jRMdZ2MX-28">
          <mxGeometry x="9.647482014388489" width="139.3525179856115" height="84" as="geometry" />
        </mxCell>
        <mxCell id="g0F_PUkSHQh2jRMdZ2MX-30" value="&lt;div&gt;R.N.05&lt;/div&gt;&lt;div&gt;&amp;nbsp;No puede realizarse una reserva con una habitación ya existente en otra reserva para las mismas fechas&lt;br&gt;&lt;/div&gt;" style="text;html=1;align=center;verticalAlign=middle;whiteSpace=wrap;rounded=0;" vertex="1" parent="g0F_PUkSHQh2jRMdZ2MX-28">
          <mxGeometry x="8.575539568345324" y="10.5" width="128.63309352517985" height="65.625" as="geometry" />
        </mxCell>
        <mxCell id="g0F_PUkSHQh2jRMdZ2MX-43" value="" style="html=1;verticalAlign=bottom;labelBackgroundColor=none;endArrow=none;endFill=0;dashed=1;rounded=0;exitX=0.75;exitY=0.962;exitDx=0;exitDy=0;exitPerimeter=0;entryX=1.021;entryY=0.162;entryDx=0;entryDy=0;entryPerimeter=0;" edge="1" parent="g0F_PUkSHQh2jRMdZ2MX-28" target="M9siHUHZYdLlpbm4mkQO-1">
          <mxGeometry width="160" relative="1" as="geometry">
            <mxPoint x="9.649999999999977" y="42.129999999999995" as="sourcePoint" />
            <mxPoint x="-45.35000000000002" y="75.13" as="targetPoint" />
            <Array as="points">
              <mxPoint x="-35" y="76" />
            </Array>
          </mxGeometry>
        </mxCell>
        <mxCell id="g0F_PUkSHQh2jRMdZ2MX-31" value="" style="group" vertex="1" connectable="0" parent="1">
          <mxGeometry x="810" y="170" width="139" height="69" as="geometry" />
        </mxCell>
        <mxCell id="g0F_PUkSHQh2jRMdZ2MX-32" value="" style="shape=note2;boundedLbl=1;whiteSpace=wrap;html=1;size=25;verticalAlign=top;align=center;" vertex="1" parent="g0F_PUkSHQh2jRMdZ2MX-31">
          <mxGeometry x="9" width="130" height="69" as="geometry" />
        </mxCell>
        <mxCell id="g0F_PUkSHQh2jRMdZ2MX-33" value="&lt;div&gt;R.N.06&lt;/div&gt;&lt;div&gt;&amp;nbsp;No puede realizarse una reserva si no cumple la estancia mínima del hotel&lt;br&gt;&lt;/div&gt;" style="text;html=1;align=center;verticalAlign=middle;whiteSpace=wrap;rounded=0;" vertex="1" parent="g0F_PUkSHQh2jRMdZ2MX-31">
          <mxGeometry x="8" y="8.625" width="120" height="53.90625" as="geometry" />
        </mxCell>
        <mxCell id="g0F_PUkSHQh2jRMdZ2MX-37" value="" style="html=1;verticalAlign=bottom;labelBackgroundColor=none;endArrow=none;endFill=0;dashed=1;rounded=0;exitX=0.75;exitY=0.962;exitDx=0;exitDy=0;exitPerimeter=0;entryX=0.392;entryY=0;entryDx=0;entryDy=0;entryPerimeter=0;" edge="1" parent="1" source="fDUtnPwelxCrCshrMRrS-3" target="g0F_PUkSHQh2jRMdZ2MX-4">
          <mxGeometry width="160" relative="1" as="geometry">
            <mxPoint x="60" y="296" as="sourcePoint" />
            <mxPoint x="120" y="310" as="targetPoint" />
          </mxGeometry>
        </mxCell>
        <mxCell id="g0F_PUkSHQh2jRMdZ2MX-38" value="" style="html=1;verticalAlign=bottom;labelBackgroundColor=none;endArrow=none;endFill=0;dashed=1;rounded=0;exitX=0.2;exitY=0.846;exitDx=0;exitDy=0;exitPerimeter=0;entryX=0.203;entryY=-0.041;entryDx=0;entryDy=0;entryPerimeter=0;" edge="1" parent="1" source="fDUtnPwelxCrCshrMRrS-3" target="g0F_PUkSHQh2jRMdZ2MX-9">
          <mxGeometry width="160" relative="1" as="geometry">
            <mxPoint x="39" y="277" as="sourcePoint" />
            <mxPoint x="41" y="330" as="targetPoint" />
          </mxGeometry>
        </mxCell>
        <mxCell id="g0F_PUkSHQh2jRMdZ2MX-41" value="" style="html=1;verticalAlign=bottom;labelBackgroundColor=none;endArrow=none;endFill=0;dashed=1;rounded=0;exitX=0.75;exitY=0.962;exitDx=0;exitDy=0;exitPerimeter=0;entryX=0.421;entryY=-0.023;entryDx=0;entryDy=0;entryPerimeter=0;" edge="1" parent="1" target="M9siHUHZYdLlpbm4mkQO-1">
          <mxGeometry width="160" relative="1" as="geometry">
            <mxPoint x="681" y="99" as="sourcePoint" />
            <mxPoint x="683" y="152" as="targetPoint" />
          </mxGeometry>
        </mxCell>
        <mxCell id="g0F_PUkSHQh2jRMdZ2MX-42" value="" style="html=1;verticalAlign=bottom;labelBackgroundColor=none;endArrow=none;endFill=0;dashed=1;rounded=0;exitX=0.75;exitY=0.962;exitDx=0;exitDy=0;exitPerimeter=0;entryX=0.836;entryY=0.008;entryDx=0;entryDy=0;entryPerimeter=0;" edge="1" parent="1" target="M9siHUHZYdLlpbm4mkQO-1">
          <mxGeometry width="160" relative="1" as="geometry">
            <mxPoint x="795" y="106" as="sourcePoint" />
            <mxPoint x="796" y="142" as="targetPoint" />
            <Array as="points">
              <mxPoint x="750" y="140" />
            </Array>
          </mxGeometry>
        </mxCell>
        <mxCell id="g0F_PUkSHQh2jRMdZ2MX-44" value="" style="html=1;verticalAlign=bottom;labelBackgroundColor=none;endArrow=none;endFill=0;dashed=1;rounded=0;exitX=0;exitY=0.75;exitDx=0;exitDy=0;" edge="1" parent="1" source="g0F_PUkSHQh2jRMdZ2MX-33">
          <mxGeometry width="160" relative="1" as="geometry">
            <mxPoint x="775" y="191" as="sourcePoint" />
            <mxPoint x="760" y="220" as="targetPoint" />
          </mxGeometry>
        </mxCell>
        <mxCell id="g0F_PUkSHQh2jRMdZ2MX-45" value="" style="group" vertex="1" connectable="0" parent="1">
          <mxGeometry x="980" y="229" width="139" height="64" as="geometry" />
        </mxCell>
        <mxCell id="g0F_PUkSHQh2jRMdZ2MX-46" value="" style="shape=note2;boundedLbl=1;whiteSpace=wrap;html=1;size=25;verticalAlign=top;align=center;" vertex="1" parent="g0F_PUkSHQh2jRMdZ2MX-45">
          <mxGeometry x="9" width="130" height="64" as="geometry" />
        </mxCell>
        <mxCell id="g0F_PUkSHQh2jRMdZ2MX-47" value="&lt;div&gt;R.N.07&lt;/div&gt;&lt;div&gt;&amp;nbsp;No puede haber un aforo superior a 500 personas en el hotel&lt;/div&gt;" style="text;html=1;align=center;verticalAlign=middle;whiteSpace=wrap;rounded=0;" vertex="1" parent="g0F_PUkSHQh2jRMdZ2MX-45">
          <mxGeometry x="8" y="9" width="120" height="50" as="geometry" />
        </mxCell>
        <mxCell id="g0F_PUkSHQh2jRMdZ2MX-48" value="" style="group" vertex="1" connectable="0" parent="1">
          <mxGeometry x="201" y="-30" width="149" height="74" as="geometry" />
        </mxCell>
        <mxCell id="g0F_PUkSHQh2jRMdZ2MX-49" value="" style="shape=note2;boundedLbl=1;whiteSpace=wrap;html=1;size=25;verticalAlign=top;align=center;" vertex="1" parent="g0F_PUkSHQh2jRMdZ2MX-48">
          <mxGeometry x="9.647482014388489" width="139.3525179856115" height="74" as="geometry" />
        </mxCell>
        <mxCell id="g0F_PUkSHQh2jRMdZ2MX-50" value="&lt;div&gt;R.N.08&lt;/div&gt;&lt;div&gt;Incluir a los clientes con más de 5 reservas en el plan de fidelidad&lt;br&gt;&lt;/div&gt;" style="text;html=1;align=center;verticalAlign=middle;whiteSpace=wrap;rounded=0;" vertex="1" parent="g0F_PUkSHQh2jRMdZ2MX-48">
          <mxGeometry x="11" y="7.625" width="128.63309352517985" height="57.8125" as="geometry" />
        </mxCell>
        <mxCell id="g0F_PUkSHQh2jRMdZ2MX-52" value="" style="group" vertex="1" connectable="0" parent="1">
          <mxGeometry x="827" y="490" width="149" height="74" as="geometry" />
        </mxCell>
        <mxCell id="g0F_PUkSHQh2jRMdZ2MX-53" value="" style="shape=note2;boundedLbl=1;whiteSpace=wrap;html=1;size=25;verticalAlign=top;align=center;" vertex="1" parent="g0F_PUkSHQh2jRMdZ2MX-52">
          <mxGeometry x="9.647482014388489" width="139.3525179856115" height="74" as="geometry" />
        </mxCell>
        <mxCell id="g0F_PUkSHQh2jRMdZ2MX-54" value="&lt;div&gt;R.N.09&lt;/div&gt;&lt;div&gt;No incluirse una habitacion en una reserva si no cumple el control de calidad&lt;br&gt;&lt;/div&gt;" style="text;html=1;align=center;verticalAlign=middle;whiteSpace=wrap;rounded=0;" vertex="1" parent="g0F_PUkSHQh2jRMdZ2MX-52">
          <mxGeometry x="11" y="7.625" width="128.63309352517985" height="57.8125" as="geometry" />
        </mxCell>
        <mxCell id="g0F_PUkSHQh2jRMdZ2MX-55" value="" style="html=1;verticalAlign=bottom;labelBackgroundColor=none;endArrow=none;endFill=0;dashed=1;rounded=0;exitX=0.75;exitY=0.962;exitDx=0;exitDy=0;exitPerimeter=0;" edge="1" parent="1">
          <mxGeometry width="160" relative="1" as="geometry">
            <mxPoint x="276" y="42" as="sourcePoint" />
            <mxPoint x="277" y="70" as="targetPoint" />
          </mxGeometry>
        </mxCell>
        <mxCell id="g0F_PUkSHQh2jRMdZ2MX-56" value="" style="html=1;verticalAlign=bottom;labelBackgroundColor=none;endArrow=none;endFill=0;dashed=1;rounded=0;exitX=1;exitY=0.115;exitDx=0;exitDy=0;exitPerimeter=0;" edge="1" parent="1" source="M9siHUHZYdLlpbm4mkQO-55">
          <mxGeometry width="160" relative="1" as="geometry">
            <mxPoint x="664" y="531" as="sourcePoint" />
            <mxPoint x="834" y="531" as="targetPoint" />
          </mxGeometry>
        </mxCell>
        <mxCell id="g0F_PUkSHQh2jRMdZ2MX-57" value="" style="html=1;verticalAlign=bottom;labelBackgroundColor=none;endArrow=none;endFill=0;dashed=1;rounded=0;exitX=1;exitY=1;exitDx=0;exitDy=0;entryX=0;entryY=0.5;entryDx=0;entryDy=0;" edge="1" parent="1" target="g0F_PUkSHQh2jRMdZ2MX-47">
          <mxGeometry width="160" relative="1" as="geometry">
            <mxPoint x="763" y="261.5" as="sourcePoint" />
            <mxPoint x="933" y="261.5" as="targetPoint" />
          </mxGeometry>
        </mxCell>
      </root>
    </mxGraphModel>
  </diagram>
</mxfile>
